:SAMPLES-PER-SECOND 30
:FRAME-RANGE 1-2775
:FULLY-SPECIFIED
:DEGREES
521
root  39.9768 38.5008 30.4538 -1.50461 3.82956 -2.68196
RightUpLeg  -8.20805 38.9505 -3.921
RightLeg  23.2099 1.89038 0.665874
RightFoot  -17.5207 0.401288 9.62043
RightToes  -5.28216e-011 1.2921e-014 -6.02303e-014
Spine  8.12363 -3.20407 0.0802294
Spine1  1.35153 -3.92296 3.90009
HEad  -11.4519 -51.8274 12.3919
LeftShoulder1  1.57613 -0.730647 -31.3052
LeftArm  7.7206 12.9957 -31.2937
LeftForeArm  9.29028 -6.21805 -16.2547
LeftHand  0.206223 0.611445 -5.14678
RightShoulder  6.00898 7.33669 48.5715
RightArm  32.4525 0.538778 17.289
RightForeArm  -4.77205 24.7705 5.54593
RightHand  0.312634 3.95253 3.61449
LeftUpLeg  -8.68781 -11.3447 20.0355
LeftLeg  17.4477 -12.3577 -4.00566
LeftFoot  -9.14165 0.441696 -19.9929
LeftToes  -2.158e-010 -1.26819e-010 -1.05346e-011
522
root  41.4604 38.4457 30.2107 -0.641174 -1.15803 -2.19778
RightUpLeg  -10.6472 37.4777 -8.05002
RightLeg  22.4261 1.61585 0.514836
RightFoot  -16.2957 0.422769 12.294
RightToes  -5.28216e-011 1.2921e-014 -6.02303e-014
Spine  8.95364 -3.0219 -1.57828
Spine1  0.7403 -3.93908 4.04815
HEad  -11.9994 -50.1042 12.2669
LeftShoulder1  1.57073 -0.6836 -31.5346
LeftArm  6.69936 10.9607 -31.2705
LeftForeArm  9.16845 -7.43076 -15.6158
LeftHand  0.186658 0.633368 -4.69184
RightShoulder  6.1851 7.75127 48.1481
RightArm  32.0719 1.03796 16.4952
RightForeArm  -6.30491 22.0451 5.84525
RightHand  0.283725 3.96157 3.25204
LeftUpLeg  -8.07722 -2.58837 17.6489
LeftLeg  19.0657 -15.5104 -5.56558
LeftFoot  -12.612 -0.114956 -17.0343
LeftToes  -2.158e-010 -1.26819e-010 -1.05346e-011
523
root  42.8388 38.6367 29.9249 0.597534 -6.36758 -0.813772
RightUpLeg  -13.2414 30.4126 -12.2168
RightLeg  20.7478 0.141827 -0.152145
RightFoot  -12.4038 0.0524248 14.709
RightToes  -5.28216e-011 1.2921e-014 -6.02303e-014
Spine  9.40741 -2.54864 -4.64113
Spine1  -0.118778 -3.66861 3.50474
HEad  -12.6299 -48.3134 12.5006
LeftShoulder1  1.567 -0.648386 -31.6926
LeftArm  8.24119 9.29712 -31.0362
LeftForeArm  6.84995 -10.2923 -14.2837
LeftHand  0.154963 0.619427 -3.89684
RightShoulder  6.52423 8.26399 48.5757
RightArm  24.6209 1.75545 14.8188
RightForeArm  -1.17486 17.8921 8.92856
RightHand  0.25345 3.96209 2.87653
LeftUpLeg  -8.1218 4.86869 14.1095
LeftLeg  19.3082 -16.3301 -5.80425
LeftFoot  -12.4444 -0.0698492 -14.8955
LeftToes  -2.158e-010 -1.26819e-010 -1.05346e-011
524
root  44.2933 38.8398 29.6044 2.26871 -10.3658 0.374304
RightUpLeg  -15.827 19.6299 -14.2464
RightLeg  19.7443 -5.00971 -2.20147
RightFoot  -7.21901 -0.589044 14.9166
RightToes  -5.28216e-011 1.2921e-014 -6.02303e-014
Spine  9.57603 -2.60118 -6.15085
Spine1  -1.34962 -3.7784 3.69622
HEad  -12.7445 -46.7802 12.5117
LeftShoulder1  1.56874 -0.646253 -31.7541
LeftArm  12.7781 7.85603 -30.2673
LeftForeArm  1.93243 -14.1016 -12.1395
LeftHand  0.11185 0.651254 -2.86017
RightShoulder  6.64117 8.30161 49.2901
RightArm  11.2598 2.31726 13.3675
RightForeArm  9.53456 11.3712 12.825
RightHand  0.182232 3.89788 2.01163
LeftUpLeg  -9.93915 9.17989 10.3818
LeftLeg  19.6462 -15.5607 -5.74441
LeftFoot  -11.6341 0.0354086 -13.2723
LeftToes  -2.158e-010 -1.26819e-010 -1.05346e-011
525
root  45.6943 39.1612 29.3947 2.75974 -14.0318 0.570078
RightUpLeg  -16.1059 5.42758 -12.474
RightLeg  18.574 -7.16711 -2.88503
RightFoot  -3.50777 -0.79148 11.1762
RightToes  -5.28216e-011 1.2921e-014 -6.02303e-014
Spine  10.1695 -2.66893 -4.88881
Spine1  -1.8339 -3.54891 2.54392
HEad  -12.8017 -45.4409 11.4805
LeftShoulder1  1.61059 -0.761567 -31.7148
LeftArm  16.6688 6.29682 -29.1796
LeftForeArm  -2.46488 -17.378 -9.6801
LeftHand  0.0941165 0.433832 -2.28426
RightShoulder  6.36077 7.80709 49.2755
RightArm  4.57982 1.38049 13.2106
RightForeArm  11.4425 7.62006 14.2232
RightHand  0.0871607 3.07753 0.965783
LeftUpLeg  -9.66593 14.4266 8.05815
LeftLeg  18.2399 -16.538 -5.90066
LeftFoot  -10.3702 0.164454 -12.0617
LeftToes  -2.158e-010 -1.26819e-010 -1.05346e-011
526
root  46.9086 39.4012 29.274 2.95459 -18.2924 0.454605
RightUpLeg  -16.1193 -7.35162 -9.69435
RightLeg  19.0129 -4.85494 -2.06839
RightFoot  -3.54824 -0.922681 13.1361
RightToes  -5.28216e-011 1.2921e-014 -6.02303e-014
Spine  9.71435 -2.38963 -3.20038
Spine1  -1.24604 -2.77526 0.521807
HEad  -12.4694 -44.0379 9.55803
LeftShoulder1  1.64186 -0.848495 -31.6801
LeftArm  18.1684 4.98553 -28.2044
LeftForeArm  -5.19912 -20.1153 -7.28662
LeftHand  0.0953834 0.136274 -2.14439
RightShoulder  6.2847 7.72154 49.0579
RightArm  1.53707 -0.134339 13.3509
RightForeArm  10.1859 4.88355 15.1048
RightHand  0.0619792 2.42103 0.726237
LeftUpLeg  -8.91667 16.2361 6.54451
LeftLeg  16.6111 -13.8759 -5.31916
LeftFoot  -9.5402 0.228739 -10.8993
LeftToes  -2.158e-010 -1.26819e-010 -1.05346e-011
527
root  47.9956 39.6281 29.2012 3.18674 -22.7834 0.43736
RightUpLeg  -16.4335 -14.3814 -7.46515
RightLeg  21.9988 -7.0037 -3.31543
RightFoot  -3.88481 -0.871228 12.9111
RightToes  -5.28216e-011 1.2921e-014 -6.02303e-014
Spine  9.15178 -1.98479 -2.36229
Spine1  -1.14328 -2.10649 -0.517612
HEad  -11.1819 -42.0588 7.36567
LeftShoulder1  1.53747 -0.592292 -31.4871
LeftArm  17.1835 4.8682 -27.5583
LeftForeArm  -5.93726 -22.5631 -5.56171
LeftHand  0.0904139 0.104538 -2.01728
RightShoulder  6.21029 7.62646 48.8914
RightArm  4.80338 -1.23471 13.3035
RightForeArm  7.52902 3.26617 16.2259
RightHand  0.122028 2.13034 1.70752
LeftUpLeg  -7.85712 14.7853 5.27652
LeftLeg  13.9369 -7.75143 -4.44955
LeftFoot  -8.33541 0.300007 -9.51815
LeftToes  -2.158e-010 -1.26819e-010 -1.05346e-011
528
root  48.9794 39.7849 29.1563 3.22311 -27.5821 0.802841
RightUpLeg  -16.5374 -15.9991 -6.51666
RightLeg  26.399 -8.46812 -4.76588
RightFoot  -4.60225 -0.749206 12.1477
RightToes  -5.28216e-011 1.2921e-014 -6.02303e-014
Spine  8.56971 -1.55985 -2.33296
Spine1  -1.43659 -1.55386 -1.19255
HEad  -9.71531 -39.6896 5.43258
LeftShoulder1  1.39584 -0.242384 -31.2059
LeftArm  13.2164 5.8664 -26.965
LeftForeArm  -3.78816 -24.55 -5.44289
LeftHand  0.0857462 -0.0858008 -1.82386
RightShoulder  6.14256 7.53128 48.7754
RightArm  9.223 -1.88599 13.2018
RightForeArm  10.2121 1.42987 17.0839
RightHand  0.244723 2.63379 3.33552
LeftUpLeg  -6.65945 11.6785 4.03752
LeftLeg  10.9908 0.218642 -4.19441
LeftFoot  -7.25418 0.347393 -8.50822
LeftToes  -2.158e-010 -1.26819e-010 -1.05346e-011
529
root  49.8586 39.8562 29.1416 2.80963 -32.3316 1.2564
RightUpLeg  -15.6866 -16.2965 -6.25692
RightLeg  30.9777 -8.46065 -5.67746
RightFoot  -5.48893 -0.65352 12.0098
RightToes  -5.28216e-011 1.2921e-014 -6.02303e-014
Spine  8.19345 -1.285 -2.54767
Spine1  -1.67948 -1.23828 -1.70685
HEad  -8.47922 -36.6678 3.66486
LeftShoulder1  1.30407 -0.00118837 -31.148
LeftArm  10.3729 7.3488 -25.9022
LeftForeArm  -2.6803 -26.3587 -5.79988
LeftHand  0.0713835 0.122893 -1.60332
RightShoulder  5.9919 7.29334 48.6284
RightArm  14.7611 -2.30734 13.3209
RightForeArm  14.066 0.650816 17.6117
RightHand  0.3285 3.53282 4.02169
LeftUpLeg  -5.45826 9.8146 2.59485
LeftLeg  8.66578 6.59388 -3.92202
LeftFoot  -6.4716 0.364812 -7.6606
LeftToes  -2.158e-010 -1.26819e-010 -1.05346e-011
530
root  50.6912 39.8324 29.0991 2.37485 -37.0104 1.93027
RightUpLeg  -14.7393 -16.2971 -6.29649
RightLeg  35.7885 -9.77192 -7.7328
RightFoot  -6.11756 -0.590163 11.98
RightToes  -5.28216e-011 1.2921e-014 -6.02303e-014
Spine  7.68519 -1.11504 -2.84454
Spine1  -1.81734 -1.05262 -2.15433
HEad  -7.79618 -33.4249 2.62832
LeftShoulder1  1.27125 0.0925519 -31.2073
LeftArm  9.79977 8.57623 -24.6449
LeftForeArm  -2.62461 -26.977 -5.94149
LeftHand  0.067802 0.214071 -1.56228
RightShoulder  5.75163 6.87011 48.5851
RightArm  19.2365 -2.91546 13.5946
RightForeArm  14.9684 1.13412 17.8137
RightHand  0.370744 3.64184 4.50717
LeftUpLeg  -5.21835 9.61498 0.99709
LeftLeg  7.55467 11.5204 -3.79777
LeftFoot  -6.27688 0.354987 -7.17096
LeftToes  -2.158e-010 -1.26819e-010 -1.05346e-011
531
root  51.4773 39.7904 29.0442 1.74545 -41.4296 2.6481
RightUpLeg  -13.1378 -17.0199 -6.50938
RightLeg  39.9026 -11.2978 -10.217
RightFoot  -6.69277 -0.492311 10.972
RightToes  -5.28216e-011 1.2921e-014 -6.02303e-014
Spine  7.30891 -1.08957 -3.00532
Spine1  -1.74637 -1.03667 -2.39261
HEad  -7.71075 -30.3401 2.36939
LeftShoulder1  1.25408 0.155182 -31.3917
LeftArm  11.0445 9.42507 -23.4211
LeftForeArm  -3.47053 -26.7087 -5.92191
LeftHand  0.0576568 0.439742 -1.42367
RightShoulder  5.51812 6.43313 48.6656
RightArm  20.8332 -3.69516 13.7234
RightForeArm  14.3139 1.5926 17.8418
RightHand  0.345522 3.73714 4.13298
LeftUpLeg  -5.2654 9.29041 -0.541074
LeftLeg  6.74616 16.7903 -3.52898
LeftFoot  -6.27642 0.346976 -6.98968
LeftToes  -2.158e-010 -1.26819e-010 -1.05346e-011
532
root  52.2279 39.7281 28.9837 0.759705 -45.8134 3.74358
RightUpLeg  -10.9869 -18.5124 -7.1805
RightLeg  42.7748 -11.9297 -11.8467
RightFoot  -7.0073 -0.431704 10.1204
RightToes  -5.28216e-011 1.2921e-014 -6.02303e-014
Spine  7.02929 -1.09649 -3.21268
Spine1  -1.69626 -1.05486 -2.64375
HEad  -7.75421 -27.0653 2.02375
LeftShoulder1  1.24945 0.192723 -31.6771
LeftArm  13.2908 10.1255 -22.6485
LeftForeArm  -5.19237 -25.4743 -5.72276
LeftHand  0.0683196 0.338562 -1.62933
RightShoulder  5.23837 5.9238 48.6979
RightArm  20.2394 -4.30226 13.8308
RightForeArm  13.04 1.79637 17.7969
RightHand  0.339398 3.61684 4.11822
LeftUpLeg  -5.39995 8.62282 -2.17685
LeftLeg  6.09929 21.4176 -3.18456
LeftFoot  -6.04334 0.328129 -6.30575
LeftToes  -2.158e-010 -1.26819e-010 -1.05346e-011
533
root  52.9364 39.6852 28.9049 -0.207458 -50.1748 4.82772
RightUpLeg  -8.35816 -20.2577 -7.80062
RightLeg  43.8532 -12.1268 -12.4729
RightFoot  -6.57593 -0.446432 9.62916
RightToes  -5.28216e-011 1.2921e-014 -6.02303e-014
Spine  6.52932 -1.12969 -3.32353
Spine1  -1.40857 -1.1103 -2.59122
HEad  -8.03706 -23.5173 1.52285
LeftShoulder1  1.23942 0.252129 -32.0577
LeftArm  16.8789 10.62 -22.3865
LeftForeArm  -8.66048 -23.6229 -5.49433
LeftHand  0.0837127 0.392889 -2.01572
RightShoulder  5.05281 5.58641 48.719
RightArm  18.4435 -4.5046 14.0136
RightForeArm  12.8889 1.42988 17.7428
RightHand  0.344606 3.63765 4.17407
LeftUpLeg  -5.88591 8.10579 -3.47978
LeftLeg  5.64719 26.1281 -2.88998
LeftFoot  -5.55919 0.315254 -5.58026
LeftToes  -2.158e-010 -1.26819e-010 -1.05346e-011
